<svg xmlns="http://www.w3.org/2000/svg" width="67" height="67" viewBox="0 0 67 67">
  <g id="logo_ig" transform="translate(-0.048 -0.408)">
    <rect id="boton" width="67" height="67" rx="33.5" transform="translate(0.048 0.408)" fill="#cff2b8"/>
    <path id="logo_ig-2" data-name="logo ig" d="M14.054,9.084a7.206,7.206,0,1,0,7.206,7.206A7.194,7.194,0,0,0,14.054,9.084Zm0,11.891a4.685,4.685,0,1,1,4.685-4.685,4.693,4.693,0,0,1-4.685,4.685ZM23.235,8.79a1.681,1.681,0,1,1-1.681-1.681A1.677,1.677,0,0,1,23.235,8.79ZM28.007,10.5a8.317,8.317,0,0,0-2.27-5.889,8.372,8.372,0,0,0-5.889-2.27c-2.32-.132-9.275-.132-11.6,0A8.36,8.36,0,0,0,2.364,4.6a8.345,8.345,0,0,0-2.27,5.889c-.132,2.32-.132,9.275,0,11.6a8.317,8.317,0,0,0,2.27,5.889,8.383,8.383,0,0,0,5.889,2.27c2.32.132,9.275.132,11.6,0a8.317,8.317,0,0,0,5.889-2.27,8.372,8.372,0,0,0,2.27-5.889c.132-2.32.132-9.269,0-11.589Zm-3,14.079a4.743,4.743,0,0,1-2.672,2.672c-1.85.734-6.24.564-8.284.564s-6.441.163-8.284-.564A4.743,4.743,0,0,1,3.1,24.575c-.734-1.85-.564-6.24-.564-8.284S2.37,9.85,3.1,8.006A4.743,4.743,0,0,1,5.769,5.334c1.85-.734,6.24-.564,8.284-.564s6.441-.163,8.284.564A4.743,4.743,0,0,1,25.01,8.006c.734,1.85.564,6.24.564,8.284S25.743,22.731,25.01,24.575Z" transform="translate(19.683 17.443)"/>
  </g>
</svg>
