<svg xmlns="http://www.w3.org/2000/svg" width="103" height="102" viewBox="0 0 103 102">
  <g id="logo_ig" transform="translate(0.408 -0.448)">
    <rect id="boton" width="103" height="102" rx="51" transform="translate(-0.408 0.448)" fill="#cff2b8"/>
    <path id="logo_ig-2" data-name="logo ig" d="M21.768,12.842A11.16,11.16,0,1,0,32.928,24,11.142,11.142,0,0,0,21.768,12.842Zm0,18.415A7.255,7.255,0,1,1,29.024,24a7.269,7.269,0,0,1-7.255,7.255ZM35.988,12.385a2.6,2.6,0,1,1-2.6-2.6A2.6,2.6,0,0,1,35.988,12.385Zm7.391,2.642c-.165-3.487-.962-6.576-3.516-9.12s-5.633-3.341-9.12-3.516c-3.594-.2-14.365-.2-17.959,0-3.477.165-6.566.962-9.12,3.506S.323,11.53.148,15.017c-.2,3.594-.2,14.365,0,17.959.165,3.487.962,6.576,3.516,9.12s5.633,3.341,9.12,3.516c3.594.2,14.365.2,17.959,0,3.487-.165,6.576-.962,9.12-3.516s3.341-5.633,3.516-9.12c.2-3.594.2-14.355,0-17.949ZM38.737,36.832A7.346,7.346,0,0,1,34.6,40.97c-2.865,1.136-9.664.874-12.831.874s-9.975.253-12.831-.874A7.346,7.346,0,0,1,4.8,36.832C3.664,33.967,3.926,27.168,3.926,24s-.253-9.975.874-12.831A7.346,7.346,0,0,1,8.938,7.033C11.8,5.9,18.6,6.159,21.768,6.159s9.975-.253,12.831.874a7.346,7.346,0,0,1,4.138,4.138c1.136,2.865.874,9.664.874,12.831S39.873,33.977,38.737,36.832Z" transform="translate(30.984 26.651)"/>
  </g>
</svg>
