<svg xmlns="http://www.w3.org/2000/svg" width="54.655" height="51.934" viewBox="0 0 54.655 51.934">
  <g id="Icon_material-pets" data-name="Icon material-pets" transform="translate(0 0)">
    <path id="Trazado_4" data-name="Trazado 4" d="M16.664,17.332A6.832,6.832,0,1,1,9.832,10.5a6.832,6.832,0,0,1,6.832,6.832Z" transform="translate(-3 0.431)" fill="#cff2b8"/>
    <path id="Trazado_5" data-name="Trazado 5" d="M23.414,11.332A6.832,6.832,0,1,1,16.582,4.5a6.832,6.832,0,0,1,6.832,6.832Z" transform="translate(2.547 -4.5)" fill="#cff2b8"/>
    <path id="Trazado_6" data-name="Trazado 6" d="M32.414,11.332A6.832,6.832,0,1,1,25.582,4.5a6.832,6.832,0,0,1,6.832,6.832Z" transform="translate(9.944 -4.5)" fill="#cff2b8"/>
    <path id="Trazado_7" data-name="Trazado 7" d="M39.164,17.332A6.832,6.832,0,1,1,32.332,10.5a6.832,6.832,0,0,1,6.832,6.832Z" transform="translate(15.491 0.431)" fill="#cff2b8"/>
    <path id="Trazado_8" data-name="Trazado 8" d="M42.463,27.665c-2.377-2.787-4.372-5.165-6.777-7.952A11.594,11.594,0,0,0,30.9,16.105a5.533,5.533,0,0,0-.9-.246,13.754,13.754,0,0,0-2.132-.109,11.464,11.464,0,0,0-2.159.137,5.532,5.532,0,0,0-.9.246,11.772,11.772,0,0,0-4.782,3.607c-2.377,2.787-4.372,5.165-6.777,7.952-3.58,3.58-7.98,7.542-7.16,13.09a8.58,8.58,0,0,0,6.367,6.34c1.995.41,8.362-1.2,15.139-1.2h.492c6.777,0,13.144,1.585,15.139,1.2a8.621,8.621,0,0,0,6.367-6.34c.847-5.575-3.553-9.537-7.132-13.117Z" transform="translate(-0.543 4.746)" fill="#cff2b8"/>
  </g>
</svg>
