<svg xmlns="http://www.w3.org/2000/svg" width="64.544" height="55.938" viewBox="0 0 64.544 55.938">
  <path id="Icon_metro-directions-bike" data-name="Icon metro-directions-bike" d="M45.6,13.795a4.841,4.841,0,1,0-4.841-4.841A4.846,4.846,0,0,0,45.6,13.795Zm8.068,19.363A13.447,13.447,0,1,0,67.114,46.6,13.451,13.451,0,0,0,53.668,33.158Zm0,22.859A9.413,9.413,0,1,1,63.08,46.6,9.406,9.406,0,0,1,53.668,56.017Zm-11.3-28.238h11.3V22.938H45.062l-5.2-8.781a4.564,4.564,0,0,0-3.94-2.246,4.508,4.508,0,0,0-3.227,1.345l-9.95,9.937a4.568,4.568,0,0,0,.941,7.194l9.009,5.459V49.294h4.841V31.867l-6.051-4.491L37.72,21.11l4.653,6.669ZM16.017,33.158A13.447,13.447,0,1,0,29.464,46.6,13.451,13.451,0,0,0,16.017,33.158Zm0,22.859A9.413,9.413,0,1,1,25.43,46.6,9.406,9.406,0,0,1,16.017,56.017Z" transform="translate(-2.571 -4.113)" fill="#cff2b8"/>
</svg>
